<svg width="24" height="25" viewBox="0 0 24 25" fill="none" xmlns="http://www.w3.org/2000/svg">
<path d="M10 13.5C10.4295 14.0741 10.9774 14.5491 11.6066 14.8929C12.2357 15.2367 12.9315 15.4411 13.6467 15.4923C14.3618 15.5435 15.0796 15.4403 15.7513 15.1897C16.4231 14.9392 17.0331 14.547 17.54 14.04L20.54 11.04C21.4508 10.097 21.9548 8.83394 21.9434 7.52296C21.932 6.21198 21.4061 4.95791 20.4791 4.03087C19.5521 3.10383 18.298 2.57799 16.987 2.5666C15.676 2.5552 14.413 3.05918 13.47 3.96997L11.75 5.67997" stroke="#A3A3A3" stroke-width="2" stroke-linecap="round" stroke-linejoin="round"/>
<path d="M14.0002 11.5C13.5707 10.9259 13.0228 10.4508 12.3936 10.107C11.7645 9.76328 11.0687 9.55886 10.3535 9.50765C9.63841 9.45643 8.92061 9.55961 8.24885 9.8102C7.5771 10.0608 6.96709 10.4529 6.4602 10.96L3.4602 13.96C2.54941 14.903 2.04544 16.166 2.05683 17.477C2.06822 18.788 2.59407 20.042 3.52111 20.9691C4.44815 21.8961 5.70221 22.422 7.01319 22.4334C8.32418 22.4447 9.58719 21.9408 10.5302 21.03L12.2402 19.32" stroke="#A3A3A3" stroke-width="2" stroke-linecap="round" stroke-linejoin="round"/>
</svg>
