<svg width="31" height="31" viewBox="0 0 31 31" fill="none" xmlns="http://www.w3.org/2000/svg">
<path d="M23.5 7.5H7.5C6.39543 7.5 5.5 8.39543 5.5 9.5V10.5C5.5 11.6046 6.39543 12.5 7.5 12.5H23.5C24.6046 12.5 25.5 11.6046 25.5 10.5V9.5C25.5 8.39543 24.6046 7.5 23.5 7.5Z" stroke="#767676" stroke-width="2" stroke-linecap="round" stroke-linejoin="round"/>
<path d="M15.5 16.5V23.5" stroke="#767676" stroke-width="2" stroke-linecap="round" stroke-linejoin="round"/>
<path d="M12.5 19.5L15.5 16.5L18.5 19.5" stroke="#767676" stroke-width="2" stroke-linecap="round" stroke-linejoin="round"/>
<path d="M7.5 12.5V21.5C7.5 22.0304 7.71071 22.5391 8.08579 22.9142C8.46086 23.2893 8.96957 23.5 9.5 23.5H11.5" stroke="#767676" stroke-width="2" stroke-linecap="round" stroke-linejoin="round"/>
<path d="M23.5 12.5V21.5C23.5 22.0304 23.2893 22.5391 22.9142 22.9142C22.5391 23.2893 22.0304 23.5 21.5 23.5H19.5" stroke="#767676" stroke-width="2" stroke-linecap="round" stroke-linejoin="round"/>
</svg>
